HIERARCHY
ROOT Hips
{
	OFFSET 0.000000 0.000000 0.000000
	CHANNELS 6 Xposition Yposition Zposition Zrotation Yrotation Xrotation 
	JOINT LHipJoint
	{
		OFFSET 0.000000 0.000000 0.000000
		CHANNELS 3 Zrotation Yrotation Xrotation
		JOINT LeftUpLeg
		{
			OFFSET 1.363060 -1.794630 0.839290
			CHANNELS 3 Zrotation Yrotation Xrotation
			JOINT LeftLeg
			{
				OFFSET 2.448110 -6.726130 0.000000
				CHANNELS 3 Zrotation Yrotation Xrotation
				JOINT LeftFoot
				{
					OFFSET 2.562200 -7.039590 0.000000
					CHANNELS 3 Zrotation Yrotation Xrotation
					JOINT LeftToeBase
					{
						OFFSET 0.157640 -0.433110 2.322550
						CHANNELS 3 Zrotation Yrotation Xrotation
						End Site
						{
							OFFSET 0.000000 0.000000 0.000000
						}
					}
				}
			}
		}
	}
	JOINT RHipJoint
	{
		OFFSET 0.000000 0.000000 0.000000
		CHANNELS 3 Zrotation Yrotation Xrotation
		JOINT RightUpLeg
		{
			OFFSET -1.305520 -1.794630 0.839290
			CHANNELS 3 Zrotation Yrotation Xrotation
			JOINT RightLeg
			{
				OFFSET -2.542530 -6.985550 0.000000
				CHANNELS 3 Zrotation Yrotation Xrotation
				JOINT RightFoot
				{
					OFFSET -2.568260 -7.056230 0.000000
					CHANNELS 3 Zrotation Yrotation Xrotation
					JOINT RightToeBase
					{
						OFFSET -0.164730 -0.452590 2.363150
						CHANNELS 3 Zrotation Yrotation Xrotation
						End Site
						{
							OFFSET 0.000000 0.000000 0.000000
						}
					}
				}
			}
		}
	}
	JOINT LowerBack
	{
		OFFSET 0.000000 0.000000 0.000000
		CHANNELS 3 Zrotation Yrotation Xrotation
		JOINT Spine
		{
			OFFSET 0.028270 2.035590 -0.193380
			CHANNELS 3 Zrotation Yrotation Xrotation
			JOINT Spine1
			{
				OFFSET 0.056720 2.048850 -0.042750
				CHANNELS 3 Zrotation Yrotation Xrotation
				JOINT Neck
				{
					OFFSET 0.000000 0.000000 0.000000
					CHANNELS 3 Zrotation Yrotation Xrotation
					JOINT Neck1
					{
						OFFSET -0.054170 1.746240 0.172020
						CHANNELS 3 Zrotation Yrotation Xrotation
						JOINT Head
						{
							OFFSET 0.104070 1.761360 -0.123970
							CHANNELS 3 Zrotation Yrotation Xrotation
							End Site
							{
								OFFSET 0.000000 0.000000 0.000000
							}
						}
					}
				}
				JOINT LeftShoulder
				{
					OFFSET 0.000000 0.000000 0.000000
					CHANNELS 3 Zrotation Yrotation Xrotation
					JOINT LeftArm
					{
						OFFSET 3.362410 1.200890 -0.311210
						CHANNELS 3 Zrotation Yrotation Xrotation
						JOINT LeftForeArm
						{
							OFFSET 4.983000 -0.000000 -0.000000
							CHANNELS 3 Zrotation Yrotation Xrotation
							JOINT LeftHand
							{
								OFFSET 3.483560 -0.000000 -0.000000
								CHANNELS 3 Zrotation Yrotation Xrotation
								JOINT LeftFingerBase
								{
									OFFSET 0.000000 0.000000 0.000000
									CHANNELS 3 Zrotation Yrotation Xrotation
									JOINT LeftHandIndex1
									{
										OFFSET 0.715260 -0.000000 -0.000000
										CHANNELS 3 Zrotation Yrotation Xrotation
										End Site
										{
											OFFSET 0.000000 0.000000 0.000000
										}
									}
								}
								JOINT LThumb
								{
									OFFSET 0.000000 0.000000 0.000000
									CHANNELS 3 Zrotation Yrotation Xrotation
									End Site
									{
										OFFSET 0.000000 0.000000 0.000000
									}
								}
							}
						}
					}
				}
				JOINT RightShoulder
				{
					OFFSET 0.000000 0.000000 0.000000
					CHANNELS 3 Zrotation Yrotation Xrotation
					JOINT RightArm
					{
						OFFSET -3.136600 1.374050 -0.404650
						CHANNELS 3 Zrotation Yrotation Xrotation
						JOINT RightForeArm
						{
							OFFSET -5.241900 -0.000000 -0.000000
							CHANNELS 3 Zrotation Yrotation Xrotation
							JOINT RightHand
							{
								OFFSET -3.444170 -0.000000 -0.000000
								CHANNELS 3 Zrotation Yrotation Xrotation
								JOINT RightFingerBase
								{
									OFFSET 0.000000 0.000000 0.000000
									CHANNELS 3 Zrotation Yrotation Xrotation
									JOINT RightHandIndex1
									{
										OFFSET -0.622530 -0.000000 -0.000000
										CHANNELS 3 Zrotation Yrotation Xrotation
										End Site
										{
											OFFSET 0.000000 0.000000 0.000000
										}
									}
								}
								JOINT RThumb
								{
									OFFSET 0.000000 0.000000 0.000000
									CHANNELS 3 Zrotation Yrotation Xrotation
									End Site
									{
										OFFSET 0.000000 0.000000 0.000000
									}
								}
							}
						}
					}
				}
			}
		}
	}
}
MOTION
Frames: 7
Frame Time: 0.008333
0.176772 17.964982 8.480357 -5.928607 -4.835976 0.821828 0.617955 4.595255 3.125462 -11.061693 -8.424078 -30.799005 7.411974 15.582540 52.366299 -0.141159 1.184323 5.621326 0.075200 -1.769100 -4.867900 1.641161 -4.943074 4.779773 29.165402 11.764569 -8.256602 -1.445939 -6.601944 26.355214 0.725067 -3.368217 0.360948 -0.297600 -3.507600 9.695200 3.469843 0.997025 6.122415 4.992034 1.849240 4.664831 -0.485356 0.795861 -8.231513 -5.146418 -4.105682 -16.202713 2.026066 -4.294752 22.948971 -0.482200 -1.756200 10.505800 -7.241200 2.934905 -1.267131 -81.949790 3.639941 26.187412 11.927692 -20.311282 -2.181251 -0.485035 -0.714253 -1.271374 30.311233 21.080424 12.478400 -7.125000 0.000000 0.000000 2.186200 54.914800 0.532500 11.143014 -1.740944 -2.133344 74.273558 5.803788 11.532252 -10.062433 21.273120 -2.252221 0.993741 -0.288588 4.256390 -17.906727 19.247146 -6.481100 7.125000 0.000000 0.000000 6.052800 -9.695800 4.975600 
0.175974 17.966279 8.645058 -6.117569 -5.004690 0.938621 0.570068 4.544206 3.055384 -10.745025 -8.339372 -31.121199 6.793164 15.225749 50.293695 -0.361285 2.268100 5.472238 0.058700 -1.563900 -4.302000 1.656438 -4.952960 4.828748 29.371137 11.790463 -7.648665 -1.434284 -6.549941 26.271285 0.676484 -3.246837 -0.161233 -0.304200 -3.546300 9.803500 3.693389 1.097482 6.147496 5.021518 2.007807 4.543849 -0.623329 0.867316 -8.305368 -5.214263 -4.101043 -15.930552 2.094346 -4.313501 22.836311 -0.452800 -1.764000 10.422900 -7.231462 2.938266 -1.271588 -82.045676 4.205502 26.059278 12.026933 -20.474798 -2.215517 -0.483684 -0.739232 -1.021342 30.326173 22.359891 13.167600 -7.125000 0.000000 0.000000 1.924000 56.364100 0.536300 11.131986 -1.739791 -2.142952 74.221324 5.785530 12.177941 -10.455037 21.890335 -2.419072 0.980221 -0.255904 3.707746 -17.735266 18.931668 -6.306500 7.125000 0.000000 0.000000 6.156300 -10.065600 5.015400 
0.178867 17.976853 8.804572 -6.129591 -5.173557 1.026062 0.480481 4.499308 2.991509 -10.586964 -8.417287 -31.236371 6.124244 14.770885 48.002283 -0.674058 3.661758 4.970130 0.074500 -1.761200 -4.846300 1.681068 -4.964159 4.883738 29.334058 11.687015 -7.120291 -1.403109 -6.487663 26.128650 0.564535 -2.939408 -0.628069 -0.263900 -3.304800 9.128600 3.895421 1.227944 6.314910 4.865643 2.207172 4.467060 -0.843754 0.953117 -8.428208 -5.195777 -4.156005 -16.075911 2.168510 -4.390636 22.915618 -0.444500 -1.785300 10.472900 -7.220981 2.955754 -1.281595 -81.985778 4.678752 26.299262 12.181346 -20.724438 -2.275341 -0.483146 -0.741136 -0.870159 30.414866 22.522734 13.298000 -7.125000 0.000000 0.000000 1.982800 56.567800 0.562400 11.134805 -1.729636 -2.124381 74.183478 6.133694 12.541082 -10.510398 21.967114 -2.456031 0.966850 -0.174315 2.933128 -17.598789 17.416124 -5.753700 7.125000 0.000000 0.000000 6.178300 -11.715000 4.824000 
0.180064 17.960194 8.962190 -6.057172 -5.226527 1.149441 0.371819 4.450242 2.930868 -10.466343 -8.575779 -31.300458 5.417989 14.243632 45.572592 -0.926399 4.725033 4.480782 0.105200 -2.091100 -5.757400 1.721394 -4.976984 4.942584 29.201316 11.555370 -6.654350 -1.339171 -6.381003 25.816946 0.541763 -2.892088 -0.898906 -0.203500 -2.904600 8.013300 3.931619 1.308103 6.344902 4.704792 2.309521 4.493823 -0.948950 1.007999 -8.411970 -5.023112 -4.194024 -16.268516 2.002601 -4.436187 22.880513 -0.533400 -1.812900 10.489600 -7.215718 2.960966 -1.293996 -81.953591 4.962280 26.507182 12.280819 -20.881011 -2.315796 -0.486478 -0.729523 -1.079303 30.692106 21.840412 13.075300 -7.125000 0.000000 0.000000 2.448300 55.861700 0.652700 11.131290 -1.722650 -2.099730 74.201598 6.782353 12.686368 -10.478826 21.883285 -2.402445 1.016353 -0.254765 2.578303 -18.536726 19.400860 -6.764400 7.125000 0.000000 0.000000 5.644400 -9.463200 4.662900 
0.179066 17.949021 9.131779 -6.034550 -5.316455 1.258373 0.253914 4.406741 2.877682 -10.267092 -8.642108 -31.269018 4.698213 13.653305 43.005934 -1.132386 5.604884 5.121779 0.007000 -0.542100 -1.489700 1.765671 -4.991067 5.003532 29.116268 11.475891 -6.151269 -1.282879 -6.281401 25.532704 0.525059 -2.854319 -1.091978 -0.188600 -2.797100 7.714300 3.901674 1.384646 6.148190 4.672681 2.388031 4.594385 -0.948042 1.064732 -8.230384 -5.060345 -4.213569 -16.248177 2.043983 -4.464176 22.714760 -0.520300 -1.827700 10.435300 -7.211455 2.961171 -1.299625 -82.107668 5.173488 26.338279 12.266869 -20.848944 -2.312120 -0.487150 -0.712455 -1.267819 30.675839 20.931300 12.574800 -7.125000 0.000000 0.000000 2.614300 54.827100 0.631300 11.117844 -1.709292 -2.102479 74.086226 7.091600 13.366049 -10.752461 22.288502 -2.481513 1.049190 -0.322854 1.937112 -19.195735 21.382905 -7.715900 7.125000 0.000000 0.000000 5.348700 -7.241600 4.652600 
0.179565 17.958099 9.303463 -6.247011 -5.456580 1.349214 0.148653 4.363169 2.817023 -9.776765 -8.680484 -31.252157 3.985521 13.031414 40.351575 -1.304647 6.413751 6.352585 0.176300 2.704400 7.456800 1.801249 -4.997759 5.067175 29.291913 11.385911 -5.527892 -1.240935 -6.180631 25.284789 0.508304 -2.816158 -1.347204 -0.211200 -2.958600 8.163500 4.182504 1.485476 5.903440 4.674943 2.527716 4.751005 -1.109558 1.144549 -7.962420 -5.132118 -4.214737 -16.134425 2.259831 -4.502193 22.463223 -0.448600 -1.829900 10.341300 -7.204519 2.959083 -1.305427 -82.163256 5.234223 26.290084 12.258648 -20.835195 -2.307274 -0.481024 -0.725690 -1.084278 30.375019 21.717505 12.848900 -7.125000 0.000000 0.000000 2.117700 55.649700 0.553600 11.098964 -1.691413 -2.116191 74.014515 7.230242 14.189747 -11.242102 23.026197 -2.689695 1.042758 -0.286589 1.344946 -19.340056 21.081658 -7.660400 7.125000 0.000000 0.000000 5.237800 -7.559700 4.522600 
0.182757 17.955305 9.459086 -6.290329 -5.443864 1.568508 0.023623 4.299098 2.735848 -9.440656 -8.944963 -31.299042 3.273973 12.346204 37.639641 -1.486828 7.209953 6.970599 0.267700 3.328500 9.194700 1.851932 -5.002402 5.123407 29.259483 11.288664 -5.063737 -1.167667 -6.048049 24.895440 0.559509 -2.981048 -1.495269 -0.232200 -3.101400 8.561200 4.349527 1.527664 5.850215 4.582435 2.594506 4.689107 -1.256148 1.177483 -7.952949 -5.070780 -4.161696 -15.932788 2.289602 -4.473879 22.194066 -0.446700 -1.815100 10.219000 -7.196729 2.953288 -1.315342 -82.165631 5.511650 25.972732 12.469692 -21.180430 -2.376694 -0.467433 -0.815064 0.359569 29.639223 26.695408 14.987500 -7.125000 0.000000 0.000000 -0.207900 61.016200 -0.081100 11.090684 -1.688364 -2.122593 73.965057 7.415154 14.882006 -11.667640 23.657267 -2.880686 1.032154 -0.232852 0.732611 -19.404214 20.329468 -7.410300 7.125000 0.000000 0.000000 5.145100 -8.375200 4.358900 
